<?xml version="1.0" encoding="iso-8859-1"?>
<!-- Generator: Adobe Illustrator 19.0.0, SVG Export Plug-In . SVG Version: 6.00 Build 0)  -->
<svg version="1.1" id="Layer_1" xmlns="http://www.w3.org/2000/svg" xmlns:xlink="http://www.w3.org/1999/xlink" x="0px" y="0px"
	 viewBox="0 0 511.98 511.98" style="enable-background:new 0 0 511.98 511.98;" xml:space="preserve">
<g>
	<polygon style="fill:#ED5564;" points="156.676,52.67 134.677,42.671 128.677,479.997 144.005,493.997 178.675,497.997 
		213.33,487.997 213.33,42.671 	"/>
	<polygon style="fill:#ED5564;" points="241.673,52.67 219.673,42.671 213.674,479.997 229.001,493.997 263.672,497.997 
		298.335,487.997 298.335,42.671 	"/>
	<polygon style="fill:#ED5564;" points="326.677,52.67 304.678,42.671 298.678,479.997 313.99,493.997 348.676,497.997 
		383.33,487.997 383.33,42.671 	"/>
</g>
<polygon style="fill:#656D78;" points="302.491,181.993 213.33,181.993 196.503,189.993 194.503,208.492 191.003,323.988 
	198.002,385.485 214.845,394.485 291.491,394.485 317.49,377.485 317.49,194.993 "/>
<g>
	<path style="fill:#DA4453;" d="M209.002,32.249c0,8.969-17.984,16.25-40.155,16.25c-22.186,0-40.17-7.281-40.17-16.25
		c0-8.968,17.984-16.25,40.17-16.25C191.018,15.999,209.002,23.281,209.002,32.249z"/>
	<path style="fill:#DA4453;" d="M294.397,29.749c0,8.968-17.969,16.25-40.147,16.25c-22.187,0-40.171-7.281-40.171-16.25
		s17.984-16.25,40.171-16.25C276.428,13.5,294.397,20.781,294.397,29.749z"/>
	<path style="fill:#DA4453;" d="M381.142,29.749c0,8.968-17.967,16.25-40.154,16.25c-22.186,0-40.153-7.281-40.153-16.25
		s17.968-16.25,40.153-16.25C363.176,13.5,381.142,20.781,381.142,29.749z"/>
</g>
<rect x="196" y="226.99" style="fill:#A0D468;" width="122.99" height="34.499"/>
<path d="M224.001,287.989c-5.906,0-10.671,4.781-10.671,10.656c0,5.906,4.765,10.687,10.671,10.687
	c5.875,0,10.656-4.78,10.656-10.687C234.657,292.77,229.876,287.989,224.001,287.989z"/>
<path d="M256,287.989c-5.906,0-10.671,4.781-10.671,10.656c0,5.906,4.765,10.687,10.671,10.687c5.875,0,10.656-4.78,10.656-10.687
	C266.656,292.77,261.875,287.989,256,287.989z"/>
<path d="M287.991,287.989c-5.906,0-10.656,4.781-10.656,10.656c0,5.906,4.75,10.687,10.656,10.687
	c5.875,0,10.656-4.78,10.656-10.687C298.647,292.77,293.866,287.989,287.991,287.989z"/>
<path d="M224.001,319.988c-5.906,0-10.671,4.781-10.671,10.656c0,5.906,4.765,10.687,10.671,10.687
	c5.875,0,10.656-4.78,10.656-10.687C234.657,324.769,229.876,319.988,224.001,319.988z"/>
<path d="M256,319.988c-5.906,0-10.671,4.781-10.671,10.656c0,5.906,4.765,10.687,10.671,10.687c5.875,0,10.656-4.78,10.656-10.687
	C266.656,324.769,261.875,319.988,256,319.988z"/>
<path d="M287.991,319.988c-5.906,0-10.656,4.781-10.656,10.656c0,5.906,4.75,10.687,10.656,10.687
	c5.875,0,10.656-4.78,10.656-10.687C298.647,324.769,293.866,319.988,287.991,319.988z"/>
<path d="M224.001,351.987c-5.906,0-10.671,4.781-10.671,10.656c0,5.906,4.765,10.687,10.671,10.687
	c5.875,0,10.656-4.78,10.656-10.687C234.657,356.768,229.876,351.987,224.001,351.987z"/>
<path d="M256,351.987c-5.906,0-10.671,4.781-10.671,10.656c0,5.906,4.765,10.687,10.671,10.687c5.875,0,10.656-4.78,10.656-10.687
	C266.656,356.768,261.875,351.987,256,351.987z"/>
<path d="M287.991,351.987c-5.906,0-10.656,4.781-10.656,10.656c0,5.906,4.75,10.687,10.656,10.687
	c5.875,0,10.656-4.78,10.656-10.687C298.647,356.768,293.866,351.987,287.991,351.987z"/>
<path d="M408.424,308.566c-4.969-2.625-9.938-4.858-13.781-6.483v-50.124c2.125-0.328,4.125-0.656,6-1.031
	c13.28-2.531,28.812-7.125,31.093-20.062c2.406-13.593-12.156-23.03-23.312-28.967c-4.969-2.625-9.938-4.859-13.781-6.468V31.999
	c0-9.953-6.531-18.687-18.375-24.624C366.739,2.625,354.332,0,341.332,0c-13.03,0-25.436,2.625-34.936,7.375
	c-2.905,1.453-5.499,3.062-7.749,4.844c-2.25-1.781-4.812-3.391-7.719-4.844C281.428,2.625,269.015,0,256,0
	c-13.031,0-25.437,2.625-34.952,7.375c-2.891,1.453-5.469,3.062-7.718,4.844c-2.25-1.781-4.828-3.391-7.734-4.844
	C196.096,2.625,183.69,0,170.659,0c-13.015,0-25.42,2.625-34.936,7.375c-11.859,5.938-18.39,14.671-18.39,24.624V195.43
	c-3.843,1.609-8.812,3.843-13.765,6.468c-11.156,5.938-25.718,15.374-23.327,28.967c2.281,12.938,17.812,17.531,31.092,20.062
	c1.891,0.375,3.89,0.703,6,1.031v50.124c-3.843,1.625-8.812,3.858-13.765,6.483c-11.156,5.922-25.718,15.375-23.327,28.969
	c2.281,12.952,17.812,17.515,31.092,20.062c1.891,0.359,3.89,0.703,6,1.016v121.369c0,5.766,2.391,16.625,18.39,24.625
	c9.516,4.749,21.921,7.374,34.936,7.374c13.031,0,25.437-2.625,34.937-7.374c3.047-1.531,5.594-3.156,7.734-4.812
	c2.14,1.656,4.687,3.281,7.718,4.812c9.516,4.749,21.921,7.374,34.952,7.374c13.015,0,25.428-2.625,34.928-7.374
	c3.031-1.531,5.594-3.156,7.719-4.812c2.156,1.656,4.688,3.281,7.749,4.812c9.5,4.749,21.905,7.374,34.936,7.374
	c13,0,25.406-2.625,34.936-7.374c16-8,18.375-18.859,18.375-24.625V358.612c2.125-0.312,4.125-0.656,6-1.016
	c13.28-2.547,28.812-7.109,31.093-20.062C434.141,323.941,419.579,314.488,408.424,308.566z M373.33,339.551
	c-10.904,0.874-24.842,1.53-42.685,1.718v-85.34c16.28-0.156,30.53-0.703,42.685-1.625V339.551z M298.647,383.985H213.33
	c-5.89,0-10.671-4.781-10.671-10.655v-95.997h106.675v95.997C309.334,379.204,304.553,383.985,298.647,383.985z M213.33,191.993
	h85.317c5.906,0,10.687,4.781,10.687,10.656v10.687H202.658v-10.687C202.658,196.774,207.44,191.993,213.33,191.993z
	 M202.658,234.647h106.675v21.343H202.658V234.647z M408.299,226.913c-2.5,0.984-6.688,2.234-13.656,3.422v-11.531
	C400.392,221.648,405.33,224.554,408.299,226.913z M315.928,26.452c6.499-3.25,15.749-5.109,25.404-5.109
	c9.625,0,18.875,1.859,25.375,5.109c5.469,2.734,6.623,5.171,6.623,5.546c0,0.375-1.154,2.812-6.623,5.547
	c-6.5,3.25-15.75,5.109-25.375,5.109c-9.655,0-18.905-1.859-25.404-5.109c-5.469-2.734-6.594-5.172-6.594-5.547
	S310.459,29.187,315.928,26.452z M341.332,63.998c11.719,0,22.938-2.125,31.998-6.031v174.915
	c-10.904,0.891-24.842,1.547-42.685,1.719v-31.952c0-13.906-8.906-25.749-21.312-30.155V57.967
	C318.396,61.873,329.614,63.998,341.332,63.998z M230.595,26.452c6.515-3.25,15.765-5.109,25.405-5.109
	c9.625,0,18.866,1.859,25.397,5.109c5.438,2.734,6.594,5.171,6.594,5.546c0,0.375-1.156,2.812-6.594,5.547
	c-6.531,3.25-15.772,5.109-25.397,5.109c-9.64,0-18.89-1.859-25.405-5.109c-5.453-2.734-6.594-5.172-6.594-5.547
	S225.142,29.187,230.595,26.452z M256,63.998c11.718,0,22.928-2.125,31.991-6.031V170.65h-63.99V57.967
	C233.048,61.873,244.266,63.998,256,63.998z M145.27,26.452c6.5-3.25,15.765-5.109,25.389-5.109c9.641,0,18.89,1.859,25.406,5.109
	c5.453,2.734,6.593,5.171,6.593,5.546c0,0.375-1.141,2.812-6.593,5.547c-6.516,3.25-15.765,5.109-25.406,5.109
	c-9.625,0-18.89-1.859-25.389-5.109c-5.453-2.734-6.609-5.172-6.609-5.547S139.817,29.187,145.27,26.452z M170.659,63.998
	c11.718,0,22.937-2.125,31.999-6.031v114.527c-12.406,4.406-21.327,16.25-21.327,30.155v31.952
	c-17.828-0.172-31.765-0.828-42.67-1.719V57.967C147.723,61.873,158.942,63.998,170.659,63.998z M103.694,226.913
	c2.968-2.359,7.906-5.266,13.64-8.109v11.531C110.381,229.148,106.194,227.898,103.694,226.913z M181.331,255.928v85.34
	c-17.828-0.188-31.765-0.844-42.67-1.718v-85.248C150.817,255.225,165.066,255.772,181.331,255.928z M103.694,333.582
	c2.968-2.359,7.906-5.281,13.64-8.094v11.516C110.381,335.801,106.194,334.551,103.694,333.582z M170.659,490.637
	c-21.702,0-31.999-8.547-31.999-10.656V360.956c12.156,0.938,26.405,1.469,42.67,1.656v10.718c0,13.905,8.921,25.749,21.327,30.155
	v76.496C202.658,482.091,192.378,490.637,170.659,490.637z M256,490.637c-21.718,0-31.999-8.547-31.999-10.656v-74.653h63.99v74.653
	C287.991,482.091,277.71,490.637,256,490.637z M373.33,479.981c0,2.109-10.311,10.656-31.998,10.656
	c-21.718,0-31.998-8.547-31.998-10.656v-76.496c12.405-4.406,21.312-16.25,21.312-30.155v-10.718
	c16.28-0.188,30.53-0.719,42.685-1.656v119.025H373.33z M394.642,337.004v-11.516c5.75,2.812,10.688,5.734,13.656,8.094
	C405.799,334.551,401.611,335.801,394.642,337.004z"/>
<g>
</g>
<g>
</g>
<g>
</g>
<g>
</g>
<g>
</g>
<g>
</g>
<g>
</g>
<g>
</g>
<g>
</g>
<g>
</g>
<g>
</g>
<g>
</g>
<g>
</g>
<g>
</g>
<g>
</g>
</svg>
